<svg width="198" height="67" viewBox="0 0 198 67" fill="none" xmlns="http://www.w3.org/2000/svg">
<ellipse cx="34.5" cy="33.5" rx="34.5" ry="33.5" fill="#ADEFD1"/>
<path d="M31.0121 31.4142C31.7931 30.6332 33.0594 30.6332 33.8405 31.4142C34.6215 32.1953 34.6215 33.4616 33.8405 34.2426L10.5077 57.5754L7.6793 54.747L31.0121 31.4142Z" fill="#00203F"/>
<path d="M31.0121 41.4142C31.7931 40.6332 33.0594 40.6332 33.8405 41.4142C34.6215 42.1953 34.6215 43.4616 33.8405 44.2426L16.0103 62.0728L13.1819 59.2444L31.0121 41.4142Z" fill="#00203F"/>
<path d="M101.492 41.2578V44H92.9023V41.2578H101.492ZM94.0391 26.9375V44H90.5234V26.9375H94.0391ZM109.133 44.2344C108.148 44.2344 107.266 44.0781 106.484 43.7656C105.703 43.4453 105.039 43.0039 104.492 42.4414C103.953 41.8789 103.539 41.2266 103.25 40.4844C102.961 39.7344 102.816 38.9375 102.816 38.0938V37.625C102.816 36.6641 102.953 35.7852 103.227 34.9883C103.5 34.1914 103.891 33.5 104.398 32.9141C104.914 32.3281 105.539 31.8789 106.273 31.5664C107.008 31.2461 107.836 31.0859 108.758 31.0859C109.656 31.0859 110.453 31.2344 111.148 31.5312C111.844 31.8281 112.426 32.25 112.895 32.7969C113.371 33.3438 113.73 34 113.973 34.7656C114.215 35.5234 114.336 36.3672 114.336 37.2969V38.7031H104.258V36.4531H111.02V36.1953C111.02 35.7266 110.934 35.3086 110.762 34.9414C110.598 34.5664 110.348 34.2695 110.012 34.0508C109.676 33.832 109.246 33.7227 108.723 33.7227C108.277 33.7227 107.895 33.8203 107.574 34.0156C107.254 34.2109 106.992 34.4844 106.789 34.8359C106.594 35.1875 106.445 35.6016 106.344 36.0781C106.25 36.5469 106.203 37.0625 106.203 37.625V38.0938C106.203 38.6016 106.273 39.0703 106.414 39.5C106.562 39.9297 106.77 40.3008 107.035 40.6133C107.309 40.9258 107.637 41.168 108.02 41.3398C108.41 41.5117 108.852 41.5977 109.344 41.5977C109.953 41.5977 110.52 41.4805 111.043 41.2461C111.574 41.0039 112.031 40.6406 112.414 40.1562L114.055 41.9375C113.789 42.3203 113.426 42.6875 112.965 43.0391C112.512 43.3906 111.965 43.6797 111.324 43.9062C110.684 44.125 109.953 44.2344 109.133 44.2344ZM123.102 41.1406V35.4922C123.102 35.0859 123.035 34.7383 122.902 34.4492C122.77 34.1523 122.562 33.9219 122.281 33.7578C122.008 33.5938 121.652 33.5117 121.215 33.5117C120.84 33.5117 120.516 33.5781 120.242 33.7109C119.969 33.8359 119.758 34.0195 119.609 34.2617C119.461 34.4961 119.387 34.7734 119.387 35.0938H116.012C116.012 34.5547 116.137 34.043 116.387 33.5586C116.637 33.0742 117 32.6484 117.477 32.2812C117.953 31.9062 118.52 31.6133 119.176 31.4023C119.84 31.1914 120.582 31.0859 121.402 31.0859C122.387 31.0859 123.262 31.25 124.027 31.5781C124.793 31.9062 125.395 32.3984 125.832 33.0547C126.277 33.7109 126.5 34.5312 126.5 35.5156V40.9414C126.5 41.6367 126.543 42.207 126.629 42.6523C126.715 43.0898 126.84 43.4727 127.004 43.8008V44H123.594C123.43 43.6562 123.305 43.2266 123.219 42.7109C123.141 42.1875 123.102 41.6641 123.102 41.1406ZM123.547 36.2773L123.57 38.1875H121.684C121.238 38.1875 120.852 38.2383 120.523 38.3398C120.195 38.4414 119.926 38.5859 119.715 38.7734C119.504 38.9531 119.348 39.1641 119.246 39.4062C119.152 39.6484 119.105 39.9141 119.105 40.2031C119.105 40.4922 119.172 40.7539 119.305 40.9883C119.438 41.2148 119.629 41.3945 119.879 41.5273C120.129 41.6523 120.422 41.7148 120.758 41.7148C121.266 41.7148 121.707 41.6133 122.082 41.4102C122.457 41.207 122.746 40.957 122.949 40.6602C123.16 40.3633 123.27 40.082 123.277 39.8164L124.168 41.2461C124.043 41.5664 123.871 41.8984 123.652 42.2422C123.441 42.5859 123.172 42.9102 122.844 43.2148C122.516 43.5117 122.121 43.7578 121.66 43.9531C121.199 44.1406 120.652 44.2344 120.02 44.2344C119.215 44.2344 118.484 44.0742 117.828 43.7539C117.18 43.4258 116.664 42.9766 116.281 42.4062C115.906 41.8281 115.719 41.1719 115.719 40.4375C115.719 39.7734 115.844 39.1836 116.094 38.668C116.344 38.1523 116.711 37.7188 117.195 37.3672C117.688 37.0078 118.301 36.7383 119.035 36.5586C119.77 36.3711 120.621 36.2773 121.59 36.2773H123.547ZM136.59 41.2344V26H139.988V44H136.93L136.59 41.2344ZM128.574 37.8125V37.5664C128.574 36.5977 128.684 35.7188 128.902 34.9297C129.121 34.1328 129.441 33.4492 129.863 32.8789C130.285 32.3086 130.805 31.8672 131.422 31.5547C132.039 31.2422 132.742 31.0859 133.531 31.0859C134.273 31.0859 134.922 31.2422 135.477 31.5547C136.039 31.8672 136.516 32.3125 136.906 32.8906C137.305 33.4609 137.625 34.1367 137.867 34.918C138.109 35.6914 138.285 36.5391 138.395 37.4609V38C138.285 38.8828 138.109 39.7031 137.867 40.4609C137.625 41.2188 137.305 41.8828 136.906 42.4531C136.516 43.0156 136.039 43.4531 135.477 43.7656C134.914 44.0781 134.258 44.2344 133.508 44.2344C132.719 44.2344 132.016 44.0742 131.398 43.7539C130.789 43.4336 130.273 42.9844 129.852 42.4062C129.438 41.8281 129.121 41.1484 128.902 40.3672C128.684 39.5859 128.574 38.7344 128.574 37.8125ZM131.949 37.5664V37.8125C131.949 38.3359 131.988 38.8242 132.066 39.2773C132.152 39.7305 132.289 40.1328 132.477 40.4844C132.672 40.8281 132.922 41.0977 133.227 41.293C133.539 41.4805 133.918 41.5742 134.363 41.5742C134.941 41.5742 135.418 41.4453 135.793 41.1875C136.168 40.9219 136.453 40.5586 136.648 40.0977C136.852 39.6367 136.969 39.1055 137 38.5039V36.9688C136.977 36.4766 136.906 36.0352 136.789 35.6445C136.68 35.2461 136.516 34.9062 136.297 34.625C136.086 34.3438 135.82 34.125 135.5 33.9688C135.188 33.8125 134.816 33.7344 134.387 33.7344C133.949 33.7344 133.574 33.8359 133.262 34.0391C132.949 34.2344 132.695 34.5039 132.5 34.8477C132.312 35.1914 132.172 35.5977 132.078 36.0664C131.992 36.5273 131.949 37.0273 131.949 37.5664ZM158.703 38.3398H162.207C162.137 39.4883 161.82 40.5078 161.258 41.3984C160.703 42.2891 159.926 42.9844 158.926 43.4844C157.934 43.9844 156.738 44.2344 155.34 44.2344C154.246 44.2344 153.266 44.0469 152.398 43.6719C151.531 43.2891 150.789 42.7422 150.172 42.0312C149.562 41.3203 149.098 40.4609 148.777 39.4531C148.457 38.4453 148.297 37.3164 148.297 36.0664V34.8828C148.297 33.6328 148.461 32.5039 148.789 31.4961C149.125 30.4805 149.602 29.6172 150.219 28.9062C150.844 28.1953 151.59 27.6484 152.457 27.2656C153.324 26.8828 154.293 26.6914 155.363 26.6914C156.785 26.6914 157.984 26.9492 158.961 27.4648C159.945 27.9805 160.707 28.6914 161.246 29.5977C161.793 30.5039 162.121 31.5352 162.23 32.6914H158.715C158.676 32.0039 158.539 31.4219 158.305 30.9453C158.07 30.4609 157.715 30.0977 157.238 29.8555C156.77 29.6055 156.145 29.4805 155.363 29.4805C154.777 29.4805 154.266 29.5898 153.828 29.8086C153.391 30.0273 153.023 30.3594 152.727 30.8047C152.43 31.25 152.207 31.8125 152.059 32.4922C151.918 33.1641 151.848 33.9531 151.848 34.8594V36.0664C151.848 36.9492 151.914 37.7266 152.047 38.3984C152.18 39.0625 152.383 39.625 152.656 40.0859C152.938 40.5391 153.297 40.8828 153.734 41.1172C154.18 41.3438 154.715 41.457 155.34 41.457C156.074 41.457 156.68 41.3398 157.156 41.1055C157.633 40.8711 157.996 40.5234 158.246 40.0625C158.504 39.6016 158.656 39.0273 158.703 38.3398ZM167.598 26V44H164.223V26H167.598ZM167.117 37.2148H166.191C166.199 36.332 166.316 35.5195 166.543 34.7773C166.77 34.0273 167.094 33.3789 167.516 32.832C167.938 32.2773 168.441 31.8477 169.027 31.543C169.621 31.2383 170.277 31.0859 170.996 31.0859C171.621 31.0859 172.188 31.1758 172.695 31.3555C173.211 31.5273 173.652 31.8086 174.02 32.1992C174.395 32.582 174.684 33.0859 174.887 33.7109C175.09 34.3359 175.191 35.0938 175.191 35.9844V44H171.793V35.9609C171.793 35.3984 171.711 34.957 171.547 34.6367C171.391 34.3086 171.16 34.0781 170.855 33.9453C170.559 33.8047 170.191 33.7344 169.754 33.7344C169.27 33.7344 168.855 33.8242 168.512 34.0039C168.176 34.1836 167.906 34.4336 167.703 34.7539C167.5 35.0664 167.352 35.4336 167.258 35.8555C167.164 36.2773 167.117 36.7305 167.117 37.2148ZM184.602 41.1406V35.4922C184.602 35.0859 184.535 34.7383 184.402 34.4492C184.27 34.1523 184.062 33.9219 183.781 33.7578C183.508 33.5938 183.152 33.5117 182.715 33.5117C182.34 33.5117 182.016 33.5781 181.742 33.7109C181.469 33.8359 181.258 34.0195 181.109 34.2617C180.961 34.4961 180.887 34.7734 180.887 35.0938H177.512C177.512 34.5547 177.637 34.043 177.887 33.5586C178.137 33.0742 178.5 32.6484 178.977 32.2812C179.453 31.9062 180.02 31.6133 180.676 31.4023C181.34 31.1914 182.082 31.0859 182.902 31.0859C183.887 31.0859 184.762 31.25 185.527 31.5781C186.293 31.9062 186.895 32.3984 187.332 33.0547C187.777 33.7109 188 34.5312 188 35.5156V40.9414C188 41.6367 188.043 42.207 188.129 42.6523C188.215 43.0898 188.34 43.4727 188.504 43.8008V44H185.094C184.93 43.6562 184.805 43.2266 184.719 42.7109C184.641 42.1875 184.602 41.6641 184.602 41.1406ZM185.047 36.2773L185.07 38.1875H183.184C182.738 38.1875 182.352 38.2383 182.023 38.3398C181.695 38.4414 181.426 38.5859 181.215 38.7734C181.004 38.9531 180.848 39.1641 180.746 39.4062C180.652 39.6484 180.605 39.9141 180.605 40.2031C180.605 40.4922 180.672 40.7539 180.805 40.9883C180.938 41.2148 181.129 41.3945 181.379 41.5273C181.629 41.6523 181.922 41.7148 182.258 41.7148C182.766 41.7148 183.207 41.6133 183.582 41.4102C183.957 41.207 184.246 40.957 184.449 40.6602C184.66 40.3633 184.77 40.082 184.777 39.8164L185.668 41.2461C185.543 41.5664 185.371 41.8984 185.152 42.2422C184.941 42.5859 184.672 42.9102 184.344 43.2148C184.016 43.5117 183.621 43.7578 183.16 43.9531C182.699 44.1406 182.152 44.2344 181.52 44.2344C180.715 44.2344 179.984 44.0742 179.328 43.7539C178.68 43.4258 178.164 42.9766 177.781 42.4062C177.406 41.8281 177.219 41.1719 177.219 40.4375C177.219 39.7734 177.344 39.1836 177.594 38.668C177.844 38.1523 178.211 37.7188 178.695 37.3672C179.188 37.0078 179.801 36.7383 180.535 36.5586C181.27 36.3711 182.121 36.2773 183.09 36.2773H185.047ZM196.812 31.3203V33.7109H189.43V31.3203H196.812ZM191.258 28.1914H194.633V40.1797C194.633 40.5469 194.68 40.8281 194.773 41.0234C194.875 41.2188 195.023 41.3555 195.219 41.4336C195.414 41.5039 195.66 41.5391 195.957 41.5391C196.168 41.5391 196.355 41.5312 196.52 41.5156C196.691 41.4922 196.836 41.4688 196.953 41.4453L196.965 43.9297C196.676 44.0234 196.363 44.0977 196.027 44.1523C195.691 44.207 195.32 44.2344 194.914 44.2344C194.172 44.2344 193.523 44.1133 192.969 43.8711C192.422 43.6211 192 43.2227 191.703 42.6758C191.406 42.1289 191.258 41.4102 191.258 40.5195V28.1914Z" fill="#00203F"/>
</svg>
