<svg width="600" height="600" viewBox="0 0 600 600" fill="none" xmlns="http://www.w3.org/2000/svg">
<path d="M300 513.072C428.499 513.072 532.668 506.99 532.668 499.488C532.668 491.986 428.499 485.904 300 485.904C171.501 485.904 67.332 491.986 67.332 499.488C67.332 506.99 171.501 513.072 300 513.072Z" fill="#F5F5F5"/>
<path d="M373.147 151.2H230.436C222.467 151.2 216 157.74 216 165.825V457.995C216 466.063 222.467 472.62 230.436 472.62H373.147C381.125 472.62 387.6 466.063 387.6 457.995V165.825C387.6 157.74 381.117 151.2 373.147 151.2ZM378.567 448.962C378.567 456.652 372.776 462.873 365.634 462.873H237.966C230.807 462.873 225.016 456.652 225.016 448.962V176.898C225.016 161.233 230.807 160.469 237.966 160.469H263.537C265.023 160.469 266.238 162.148 266.238 164.23V165.128C266.238 170.006 268.923 170.023 272.224 170.023H331.368C334.694 170.023 337.353 170.006 337.353 165.128V164.23C337.353 162.148 338.552 160.469 340.063 160.469H365.642C372.784 160.469 378.576 162.551 378.576 176.898V448.962H378.567Z" fill="#00203F"/>
<path d="M309.858 163.927H293.726C293.177 163.927 292.729 163.483 292.729 162.937C292.729 162.391 293.177 161.946 293.726 161.946H309.858C310.407 161.946 310.854 162.391 310.854 162.937C310.854 163.483 310.407 163.927 309.858 163.927Z" fill="white"/>
<path d="M378.577 176.899V448.962C378.577 456.652 372.785 462.873 365.643 462.873H237.967C230.808 462.873 225.017 456.652 225.017 448.962V176.899C225.017 161.233 230.808 160.469 237.967 160.469H263.538C265.024 160.469 266.239 162.148 266.239 164.23V165.128C266.239 170.006 268.924 170.023 272.225 170.023H331.369C334.695 170.023 337.354 170.006 337.354 165.128V164.23C337.354 162.148 338.553 160.469 340.064 160.469H365.643C372.785 160.469 378.577 162.551 378.577 176.899Z" fill="white"/>
<path d="M240.559 195.058L236.017 190.835L240.559 186.604L241.26 187.351L237.528 190.835L241.26 194.311L240.559 195.058Z" fill="#C7C7C7"/>
<path d="M366.682 188.199C366.682 188.686 366.285 189.089 365.787 189.089C365.297 189.089 364.892 188.694 364.892 188.199C364.892 187.703 365.289 187.309 365.787 187.309C366.285 187.309 366.682 187.712 366.682 188.199Z" fill="#C7C7C7"/>
<path d="M366.682 191.355C366.682 191.842 366.285 192.245 365.787 192.245C365.297 192.245 364.892 191.851 364.892 191.355C364.892 190.869 365.289 190.466 365.787 190.466C366.285 190.466 366.682 190.869 366.682 191.355Z" fill="#C7C7C7"/>
<path d="M366.682 194.512C366.682 194.999 366.285 195.402 365.787 195.402C365.297 195.402 364.892 195.007 364.892 194.512C364.892 194.025 365.289 193.622 365.787 193.622C366.285 193.622 366.682 194.025 366.682 194.512Z" fill="#C7C7C7"/>
<path d="M293.779 191.707H295.393V192.2H293.161V188.645H293.779V191.707ZM298.547 190.515C298.547 190.864 298.487 191.17 298.366 191.433C298.246 191.695 298.073 191.897 297.849 192.039C297.626 192.179 297.368 192.249 297.077 192.249C296.789 192.249 296.532 192.179 296.306 192.039C296.081 191.897 295.907 191.696 295.783 191.436C295.661 191.175 295.599 190.875 295.598 190.535V190.335C295.598 189.988 295.659 189.682 295.781 189.417C295.904 189.151 296.078 188.949 296.301 188.809C296.525 188.667 296.783 188.596 297.072 188.596C297.362 188.596 297.618 188.666 297.841 188.806C298.066 188.945 298.239 189.145 298.361 189.407C298.483 189.667 298.545 189.971 298.547 190.318V190.515ZM297.929 190.33C297.929 189.936 297.854 189.634 297.705 189.424C297.556 189.214 297.346 189.109 297.072 189.109C296.805 189.109 296.596 189.214 296.445 189.424C296.295 189.632 296.219 189.928 296.215 190.31V190.515C296.215 190.906 296.291 191.208 296.442 191.421C296.595 191.634 296.807 191.741 297.077 191.741C297.351 191.741 297.561 191.637 297.707 191.429C297.855 191.22 297.929 190.916 297.929 190.515V190.33ZM301.887 191.739C301.758 191.906 301.58 192.033 301.352 192.119C301.124 192.206 300.865 192.249 300.576 192.249C300.278 192.249 300.014 192.181 299.785 192.046C299.555 191.911 299.378 191.718 299.252 191.468C299.129 191.215 299.064 190.922 299.06 190.586V190.308C299.06 189.771 299.188 189.352 299.445 189.051C299.702 188.748 300.061 188.596 300.522 188.596C300.917 188.596 301.232 188.694 301.464 188.889C301.697 189.085 301.837 189.366 301.884 189.734H301.279C301.21 189.306 300.962 189.092 300.534 189.092C300.257 189.092 300.047 189.192 299.902 189.392C299.759 189.591 299.685 189.883 299.68 190.269V190.542C299.68 190.926 299.76 191.225 299.921 191.438C300.084 191.65 300.31 191.756 300.598 191.756C300.913 191.756 301.138 191.684 301.271 191.541V190.845H300.539V190.376H301.887V191.739ZM304.462 192.2H303.847V188.645H304.462V192.2ZM308.042 192.2H307.424L305.839 189.678V192.2H305.222V188.645H305.839L307.429 191.177V188.645H308.042V192.2Z" fill="#C7C7C7"/>
<path d="M259.122 166.58C259.037 166.664 258.953 166.74 258.877 166.824C258.826 166.874 258.784 166.916 258.734 166.967C258.067 166.329 257.282 165.984 256.353 165.984C255.424 165.984 254.639 166.329 253.972 166.967C253.93 166.925 253.888 166.874 253.837 166.824C253.753 166.74 253.677 166.664 253.592 166.58H253.584C253.584 166.58 253.584 166.58 253.584 166.572C253.592 166.564 253.592 166.564 253.601 166.555C253.702 166.463 253.803 166.371 253.913 166.278C254.133 166.094 254.378 165.942 254.639 165.816C254.943 165.665 255.264 165.556 255.593 165.497C255.754 165.472 255.914 165.455 256.074 165.43C256.125 165.422 256.48 165.422 256.496 165.422C256.606 165.43 256.716 165.439 256.826 165.447C257.13 165.481 257.417 165.556 257.704 165.657C257.906 165.733 258.109 165.825 258.295 165.934C258.497 166.052 258.683 166.177 258.86 166.329C258.953 166.413 259.037 166.497 259.122 166.58C259.122 166.572 259.122 166.572 259.122 166.58Z" fill="#C7C7C7"/>
<path d="M254.757 167.731C254.63 167.605 254.495 167.479 254.369 167.344C254.816 166.908 255.339 166.631 255.956 166.555C256.876 166.429 257.669 166.706 258.345 167.344C258.21 167.479 258.083 167.605 257.957 167.731C257.518 167.302 256.986 167.076 256.361 167.076C255.728 167.076 255.196 167.302 254.757 167.731Z" fill="#C7C7C7"/>
<path d="M257.56 168.125C257.434 168.251 257.299 168.385 257.172 168.511C256.944 168.293 256.674 168.176 256.353 168.176C256.032 168.176 255.762 168.293 255.534 168.511C255.408 168.385 255.273 168.251 255.146 168.125C255.762 167.479 256.877 167.428 257.56 168.125Z" fill="#C7C7C7"/>
<path d="M256.707 168.856C256.707 169.049 256.547 169.208 256.353 169.208C256.158 169.208 255.998 169.049 255.998 168.856C255.998 168.663 256.158 168.503 256.353 168.503C256.547 168.511 256.707 168.663 256.707 168.856Z" fill="#C7C7C7"/>
<path d="M235.028 167.319C235.028 166.757 235.484 166.303 236.05 166.303C236.615 166.303 237.071 166.757 237.071 167.319C237.071 167.882 236.615 168.335 236.05 168.335C235.484 168.335 235.028 167.882 235.028 167.319Z" fill="#C7C7C7"/>
<path d="M238.228 167.319C238.228 166.757 238.684 166.303 239.25 166.303C239.815 166.303 240.271 166.757 240.271 167.319C240.271 167.882 239.815 168.335 239.25 168.335C238.684 168.335 238.228 167.882 238.228 167.319Z" fill="#C7C7C7"/>
<path d="M241.436 167.319C241.436 166.757 241.891 166.303 242.457 166.303C243.023 166.303 243.479 166.757 243.479 167.319C243.479 167.882 243.023 168.335 242.457 168.335C241.891 168.335 241.436 167.882 241.436 167.319Z" fill="#C7C7C7"/>
<path d="M244.644 167.319C244.644 166.757 245.099 166.303 245.665 166.303C246.231 166.303 246.687 166.757 246.687 167.319C246.687 167.882 246.231 168.335 245.665 168.335C245.099 168.335 244.644 167.882 244.644 167.319Z" fill="#C7C7C7"/>
<path d="M247.852 167.319C247.852 166.757 248.307 166.303 248.873 166.303C249.439 166.303 249.895 166.757 249.895 167.319C249.895 167.882 249.439 168.335 248.873 168.335C248.307 168.335 247.852 167.882 247.852 167.319Z" fill="#C7C7C7"/>
<path d="M367.061 169.536H358.763V165.707H367.061V169.536ZM359.193 169.107H366.622V166.144H359.193V169.107Z" fill="#C7C7C7"/>
<path d="M364.798 166.362H359.455V168.881H364.798V166.362Z" fill="#C7C7C7"/>
<path d="M367.796 166.597H367.062V168.637H367.796V166.597Z" fill="#C7C7C7"/>
<path d="M244.577 448.172H243.826V451.598H242.425V449.852H239.943V451.598H238.533V448.172H237.79L241.184 444.688L244.577 448.172Z" fill="#EBEBEB"/>
<path d="M366.125 444.688H357.945V445.847H366.125V444.688Z" fill="#EBEBEB"/>
<path d="M366.125 447.56H357.945V448.718H366.125V447.56Z" fill="#EBEBEB"/>
<path d="M366.125 450.439H357.945V451.598H366.125V450.439Z" fill="#EBEBEB"/>
<path d="M304.364 448.265L302.034 450.733L299.704 448.265L300.117 447.879L302.034 449.91L303.95 447.879L304.364 448.265Z" fill="#EBEBEB"/>
<path d="M302.033 453.285C299.703 453.285 297.804 451.396 297.804 449.079C297.804 446.762 299.703 444.873 302.033 444.873C304.363 444.873 306.263 446.762 306.263 449.079C306.263 451.396 304.363 453.285 302.033 453.285ZM302.033 445.436C300.007 445.436 298.369 447.073 298.369 449.079C298.369 451.094 300.015 452.723 302.033 452.723C304.059 452.723 305.697 451.086 305.697 449.079C305.705 447.073 304.059 445.436 302.033 445.436Z" fill="#EBEBEB"/>
<path d="M253.247 310.595C252.335 310.595 251.609 309.864 251.609 308.966V306.96C251.609 306.783 251.744 306.649 251.921 306.649C252.09 306.649 252.242 306.783 252.242 306.96V308.966C252.242 309.52 252.698 309.973 253.247 309.973C253.812 309.973 254.26 309.52 254.26 308.966V306.96C254.26 306.783 254.403 306.649 254.58 306.649C254.758 306.649 254.893 306.783 254.893 306.96V308.966C254.884 309.864 254.158 310.595 253.247 310.595Z" fill="#263238"/>
<path d="M256.024 309.789C256.125 309.654 256.328 309.638 256.446 309.747C256.59 309.873 256.851 309.999 257.071 309.999C257.223 309.999 257.366 309.948 257.459 309.89C257.535 309.822 257.56 309.764 257.56 309.722C257.56 309.696 257.552 309.68 257.543 309.663C257.535 309.646 257.518 309.621 257.468 309.596C257.392 309.537 257.214 309.478 257.012 309.436H257.003C256.826 309.403 256.657 309.361 256.514 309.293C256.362 309.218 256.227 309.117 256.125 308.966C256.066 308.865 256.032 308.739 256.032 308.613C256.032 308.353 256.176 308.135 256.37 307.992C256.564 307.858 256.809 307.782 257.071 307.782C257.459 307.782 257.738 307.967 257.923 308.093C258.058 308.185 258.101 308.37 258.016 308.513C257.923 308.647 257.738 308.689 257.594 308.588C257.417 308.471 257.256 308.378 257.071 308.378C256.927 308.378 256.801 308.42 256.733 308.479C256.657 308.529 256.64 308.58 256.64 308.605C256.64 308.63 256.64 308.63 256.649 308.647C256.657 308.655 256.674 308.681 256.708 308.706C256.784 308.756 256.927 308.807 257.121 308.84L257.13 308.849H257.138C257.324 308.882 257.501 308.932 257.662 309.008C257.814 309.075 257.966 309.184 258.067 309.344C258.134 309.453 258.177 309.587 258.177 309.713C258.177 309.99 258.025 310.217 257.822 310.368C257.619 310.511 257.366 310.595 257.088 310.595C256.649 310.586 256.303 310.385 256.083 310.209C255.94 310.108 255.923 309.915 256.024 309.789Z" fill="#263238"/>
<path d="M258.751 309.184C258.759 308.42 259.359 307.774 260.135 307.774C260.87 307.774 261.452 308.32 261.503 309.084C261.503 309.092 261.503 309.1 261.503 309.109C261.503 309.117 261.503 309.151 261.495 309.159C261.478 309.293 261.36 309.386 261.199 309.386H259.393C259.418 309.512 259.485 309.663 259.587 309.755C259.705 309.89 259.933 309.99 260.127 310.007C260.33 310.024 260.574 309.973 260.718 309.864C260.836 309.738 261.073 309.755 261.14 309.848C261.216 309.923 261.267 310.099 261.14 310.217C260.861 310.469 260.524 310.586 260.127 310.586C259.35 310.586 258.751 309.948 258.751 309.184ZM259.367 308.907H260.971C260.912 308.681 260.625 308.353 260.135 308.311C259.646 308.336 259.409 308.681 259.367 308.907Z" fill="#263238"/>
<path d="M264.027 308.076C264.027 308.236 263.9 308.378 263.723 308.378C263.596 308.378 263.478 308.412 263.385 308.488C263.276 308.555 263.191 308.647 263.124 308.756C262.989 308.932 262.921 309.151 262.887 309.226V310.301C262.887 310.46 262.744 310.603 262.575 310.603C262.415 310.603 262.271 310.469 262.271 310.301V308.085C262.271 307.925 262.406 307.791 262.575 307.791C262.744 307.791 262.887 307.917 262.887 308.085V308.127C262.921 308.085 262.963 308.043 263.005 308.017C263.191 307.891 263.436 307.791 263.723 307.799C263.892 307.782 264.027 307.908 264.027 308.076Z" fill="#263238"/>
<path d="M267.125 308.949V310.292C267.125 310.452 266.998 310.595 266.829 310.595C266.669 310.595 266.525 310.46 266.525 310.292V308.949C266.525 308.63 266.255 308.378 265.934 308.378C265.614 308.378 265.369 308.63 265.369 308.949V310.292C265.369 310.309 265.369 310.326 265.36 310.351C265.335 310.486 265.208 310.595 265.056 310.595C264.888 310.595 264.752 310.46 264.752 310.292V308.949V308.076C264.752 307.917 264.879 307.774 265.056 307.774C265.175 307.774 265.284 307.841 265.335 307.95C265.504 307.841 265.715 307.774 265.934 307.774C266.601 307.774 267.125 308.311 267.125 308.949Z" fill="#263238"/>
<path d="M270.637 309.193V310.301C270.637 310.46 270.502 310.603 270.333 310.603C270.19 310.603 270.071 310.494 270.038 310.36C269.827 310.511 269.565 310.603 269.286 310.603C268.898 310.603 268.569 310.444 268.324 310.192C268.079 309.932 267.936 309.579 267.936 309.201C267.936 308.815 268.079 308.462 268.324 308.21C268.569 307.95 268.898 307.791 269.286 307.791C269.573 307.791 269.827 307.883 270.038 308.043C270.071 307.9 270.181 307.791 270.333 307.791C270.493 307.791 270.637 307.925 270.637 308.093V309.193ZM270.038 309.193C270.038 308.958 269.953 308.756 269.818 308.613C269.683 308.462 269.489 308.378 269.295 308.378C269.092 308.378 268.898 308.454 268.771 308.613C268.636 308.756 268.552 308.958 268.552 309.193C268.552 309.428 268.628 309.629 268.771 309.772C268.898 309.915 269.092 309.99 269.295 309.99C269.497 309.99 269.683 309.915 269.818 309.772C269.953 309.621 270.038 309.419 270.038 309.193Z" fill="#263238"/>
<path d="M274.115 308.941C274.115 308.949 274.115 308.949 274.115 308.958V310.292C274.115 310.452 273.98 310.595 273.811 310.595C273.651 310.595 273.507 310.46 273.507 310.292V308.958C273.507 308.949 273.507 308.949 273.507 308.941C273.499 308.63 273.237 308.378 272.925 308.378C272.612 308.378 272.351 308.639 272.351 308.958V310.292C272.351 310.301 272.342 310.318 272.342 310.334C272.342 310.343 272.342 310.351 272.342 310.351C272.334 310.36 272.334 310.376 272.325 310.385C272.325 310.393 272.325 310.402 272.325 310.41C272.275 310.511 272.165 310.586 272.038 310.586C272.013 310.586 271.996 310.578 271.979 310.578C271.844 310.544 271.734 310.435 271.734 310.284V308.949C271.734 308.941 271.734 308.941 271.734 308.941V308.068C271.734 307.891 271.869 307.766 272.038 307.766C272.156 307.766 272.266 307.824 272.308 307.933C272.486 307.824 272.697 307.766 272.916 307.766C273.271 307.766 273.592 307.908 273.803 308.152C274.014 307.908 274.334 307.766 274.689 307.766C275.339 307.766 275.871 308.294 275.871 308.949V310.284C275.871 310.444 275.736 310.586 275.567 310.586C275.407 310.586 275.263 310.452 275.263 310.284V308.949C275.263 308.63 275.001 308.37 274.689 308.37C274.385 308.378 274.132 308.63 274.115 308.941Z" fill="#263238"/>
<path d="M276.935 309.184C276.944 308.42 277.543 307.774 278.32 307.774C279.054 307.774 279.636 308.32 279.687 309.084C279.687 309.092 279.687 309.1 279.687 309.109C279.687 309.117 279.687 309.151 279.679 309.159C279.662 309.293 279.544 309.386 279.383 309.386H277.585C277.61 309.512 277.678 309.663 277.779 309.755C277.897 309.89 278.125 309.99 278.32 310.007C278.522 310.024 278.767 309.973 278.91 309.864C279.029 309.738 279.265 309.755 279.333 309.848C279.409 309.923 279.459 310.099 279.333 310.217C279.054 310.469 278.716 310.586 278.32 310.586C277.543 310.586 276.944 309.948 276.935 309.184ZM277.56 308.907H279.164C279.105 308.681 278.818 308.353 278.328 308.311C277.838 308.336 277.602 308.681 277.56 308.907Z" fill="#263238"/>
<path d="M352.939 314.893H250.656V326.974H352.939V314.893Z" fill="#EBEBEB"/>
<path d="M252.935 338.17H252.235V339.396C252.235 339.564 252.091 339.707 251.914 339.707C251.745 339.707 251.602 339.564 251.602 339.396V336.071C251.602 335.895 251.745 335.761 251.914 335.761H251.922H252.927C253.602 335.761 254.143 336.298 254.143 336.97C254.151 337.633 253.611 338.17 252.935 338.17ZM252.235 337.549H252.935C253.265 337.549 253.518 337.289 253.526 336.978C253.518 336.651 253.265 336.39 252.935 336.39H252.235V337.549Z" fill="#263238"/>
<path d="M257.25 338.305V339.413C257.25 339.572 257.115 339.715 256.946 339.715C256.802 339.715 256.684 339.606 256.65 339.472C256.439 339.623 256.178 339.715 255.899 339.715C255.511 339.715 255.181 339.555 254.937 339.304C254.692 339.043 254.548 338.699 254.548 338.313C254.548 337.927 254.692 337.574 254.937 337.322C255.181 337.062 255.519 336.902 255.899 336.902C256.186 336.902 256.439 336.995 256.65 337.154C256.684 337.012 256.794 336.902 256.946 336.902C257.106 336.902 257.25 337.037 257.25 337.205V338.305ZM256.65 338.305C256.65 338.069 256.566 337.868 256.431 337.725C256.296 337.574 256.102 337.49 255.908 337.49C255.705 337.49 255.511 337.566 255.384 337.725C255.249 337.868 255.165 338.069 255.165 338.305C255.165 338.54 255.241 338.741 255.384 338.884C255.511 339.027 255.705 339.102 255.908 339.102C256.11 339.102 256.296 339.027 256.431 338.884C256.558 338.741 256.65 338.531 256.65 338.305Z" fill="#263238"/>
<path d="M258.22 338.901C258.322 338.766 258.524 338.75 258.642 338.859C258.786 338.985 259.048 339.111 259.267 339.102C259.419 339.102 259.563 339.052 259.655 338.993C259.731 338.926 259.757 338.867 259.757 338.825C259.757 338.8 259.748 338.783 259.74 338.766C259.731 338.75 259.714 338.724 259.664 338.699C259.588 338.64 259.411 338.582 259.208 338.54H259.2C259.022 338.506 258.853 338.464 258.71 338.397C258.558 338.321 258.423 338.221 258.322 338.069C258.262 337.969 258.229 337.843 258.229 337.717C258.229 337.457 258.372 337.238 258.566 337.096C258.761 336.961 259.005 336.886 259.267 336.886C259.655 336.886 259.934 337.07 260.12 337.196C260.255 337.289 260.297 337.473 260.213 337.616C260.12 337.75 259.934 337.792 259.79 337.692C259.613 337.574 259.453 337.482 259.267 337.482C259.124 337.482 258.997 337.524 258.929 337.583C258.853 337.633 258.837 337.683 258.837 337.708C258.837 337.734 258.837 337.734 258.845 337.75C258.853 337.759 258.87 337.784 258.904 337.809C258.98 337.86 259.124 337.91 259.318 337.944L259.326 337.952H259.335C259.52 337.986 259.698 338.036 259.858 338.111C260.01 338.179 260.162 338.288 260.263 338.447C260.331 338.556 260.373 338.691 260.373 338.817C260.373 339.094 260.221 339.32 260.018 339.472C259.816 339.614 259.563 339.698 259.284 339.698C258.845 339.69 258.499 339.488 258.279 339.312C258.136 339.22 258.119 339.027 258.22 338.901Z" fill="#263238"/>
<path d="M260.955 338.901C261.057 338.766 261.259 338.75 261.377 338.859C261.521 338.985 261.783 339.111 262.002 339.102C262.154 339.102 262.298 339.052 262.39 338.993C262.466 338.926 262.492 338.867 262.492 338.825C262.492 338.8 262.483 338.783 262.475 338.766C262.466 338.75 262.449 338.724 262.399 338.699C262.323 338.64 262.146 338.582 261.943 338.54H261.935C261.757 338.506 261.588 338.464 261.445 338.397C261.293 338.321 261.158 338.221 261.057 338.069C260.997 337.969 260.964 337.843 260.964 337.717C260.964 337.457 261.107 337.238 261.301 337.096C261.496 336.961 261.74 336.886 262.002 336.886C262.39 336.886 262.669 337.07 262.855 337.196C262.99 337.289 263.032 337.473 262.948 337.616C262.855 337.75 262.669 337.792 262.525 337.692C262.348 337.574 262.188 337.482 262.002 337.482C261.859 337.482 261.732 337.524 261.664 337.583C261.588 337.633 261.572 337.683 261.572 337.708C261.572 337.734 261.572 337.734 261.58 337.75C261.588 337.759 261.605 337.784 261.639 337.809C261.715 337.86 261.859 337.91 262.053 337.944L262.061 337.952H262.07C262.255 337.986 262.433 338.036 262.593 338.111C262.745 338.179 262.897 338.288 262.998 338.447C263.066 338.556 263.108 338.691 263.108 338.817C263.108 339.094 262.956 339.32 262.753 339.472C262.551 339.614 262.298 339.698 262.019 339.698C261.58 339.69 261.234 339.488 261.006 339.312C260.871 339.22 260.854 339.027 260.955 338.901Z" fill="#263238"/>
<path d="M267.439 337.339L266.502 339.53C266.493 339.539 266.493 339.555 266.476 339.572C266.476 339.581 266.468 339.581 266.468 339.581C266.459 339.589 266.451 339.606 266.442 339.614C266.434 339.623 266.434 339.623 266.434 339.623C266.426 339.631 266.409 339.648 266.4 339.648C266.4 339.656 266.392 339.656 266.392 339.656C266.375 339.665 266.367 339.681 266.341 339.681C266.341 339.681 266.333 339.681 266.333 339.69C266.324 339.69 266.307 339.698 266.291 339.698C266.282 339.698 266.282 339.698 266.282 339.698C266.265 339.707 266.248 339.707 266.223 339.707C266.206 339.707 266.189 339.707 266.172 339.698C266.164 339.698 266.164 339.698 266.164 339.698C266.155 339.69 266.139 339.69 266.122 339.69C266.113 339.681 266.113 339.681 266.113 339.681C266.105 339.681 266.105 339.681 266.105 339.681C266.088 339.673 266.071 339.665 266.054 339.648C266.054 339.648 266.054 339.648 266.054 339.639C266.037 339.631 266.029 339.623 266.02 339.614C266.02 339.614 266.012 339.614 266.012 339.606C266.004 339.597 265.987 339.581 265.987 339.572C265.987 339.572 265.978 339.572 265.978 339.564C265.97 339.547 265.961 339.53 265.953 339.522L265.539 338.548L265.134 339.522C265.126 339.53 265.117 339.547 265.109 339.564V339.572C265.1 339.581 265.083 339.597 265.075 339.606C265.075 339.614 265.066 339.614 265.066 339.614C265.058 339.623 265.041 339.639 265.033 339.648C265.007 339.665 264.999 339.673 264.982 339.681H264.974C264.974 339.681 264.965 339.681 264.965 339.69C264.957 339.69 264.94 339.698 264.931 339.698C264.923 339.698 264.923 339.698 264.923 339.698C264.898 339.707 264.881 339.707 264.864 339.707C264.839 339.707 264.822 339.707 264.805 339.698C264.796 339.698 264.796 339.698 264.788 339.698C264.779 339.69 264.763 339.69 264.754 339.69C264.746 339.681 264.746 339.681 264.746 339.681C264.729 339.673 264.703 339.665 264.695 339.648C264.687 339.648 264.687 339.648 264.687 339.639C264.678 339.631 264.67 339.623 264.653 339.614C264.653 339.614 264.653 339.614 264.644 339.606C264.636 339.597 264.627 339.581 264.619 339.572C264.611 339.572 264.611 339.572 264.611 339.564C264.602 339.547 264.594 339.53 264.585 339.522L263.657 337.331C263.589 337.18 263.665 337.012 263.817 336.944C263.952 336.886 264.129 336.953 264.188 337.112L264.855 338.632L265.252 337.692C265.303 337.583 265.413 337.515 265.531 337.515C265.657 337.515 265.767 337.583 265.809 337.692L266.215 338.632L266.881 337.112C266.941 336.953 267.118 336.877 267.261 336.944C267.422 337.02 267.506 337.188 267.439 337.339Z" fill="#263238"/>
<path d="M268.789 339.295C268.544 339.052 268.401 338.699 268.401 338.305C268.401 337.918 268.544 337.591 268.789 337.322C269.042 337.054 269.372 336.894 269.76 336.894C270.131 336.894 270.478 337.062 270.706 337.322C270.959 337.591 271.102 337.927 271.102 338.305C271.102 338.699 270.959 339.052 270.706 339.295C270.469 339.564 270.131 339.723 269.76 339.723C269.372 339.723 269.042 339.564 268.789 339.295ZM269.017 338.305C269.017 338.548 269.093 338.741 269.22 338.901C269.363 339.035 269.549 339.111 269.76 339.111C269.954 339.111 270.14 339.035 270.283 338.901C270.427 338.741 270.503 338.548 270.503 338.305C270.503 338.07 270.427 337.868 270.283 337.717C270.14 337.591 269.963 337.507 269.76 337.507C269.549 337.507 269.355 337.599 269.22 337.717C269.093 337.868 269.017 338.07 269.017 338.305Z" fill="#263238"/>
<path d="M273.702 337.188C273.702 337.347 273.575 337.49 273.398 337.49C273.272 337.49 273.153 337.524 273.061 337.599C272.951 337.667 272.866 337.759 272.799 337.868C272.664 338.044 272.596 338.263 272.571 338.338V339.413C272.571 339.572 272.427 339.715 272.259 339.715C272.098 339.715 271.955 339.581 271.955 339.413V337.188C271.955 337.028 272.09 336.894 272.259 336.894C272.427 336.894 272.571 337.028 272.571 337.188V337.23C272.605 337.188 272.647 337.146 272.689 337.121C272.875 336.995 273.12 336.894 273.407 336.903C273.575 336.894 273.702 337.028 273.702 337.188Z" fill="#263238"/>
<path d="M276.869 339.404C276.869 339.564 276.734 339.707 276.565 339.707C276.413 339.707 276.295 339.597 276.261 339.463C276.05 339.606 275.771 339.707 275.493 339.707C274.725 339.707 274.117 339.06 274.117 338.305C274.117 337.532 274.733 336.886 275.493 336.886C275.771 336.886 276.041 336.978 276.253 337.121V336.063C276.253 335.895 276.388 335.761 276.565 335.761C276.734 335.761 276.869 335.903 276.869 336.063V338.296C276.869 338.296 276.869 338.296 276.869 338.305V339.404ZM275.493 337.507C275.29 337.507 275.104 337.591 274.961 337.742C274.817 337.885 274.733 338.086 274.733 338.313C274.733 338.523 274.817 338.733 274.961 338.875C275.104 339.018 275.29 339.111 275.493 339.111C275.704 339.111 275.881 339.027 276.025 338.875C276.168 338.733 276.253 338.531 276.253 338.313C276.253 338.086 276.168 337.885 276.025 337.742C275.89 337.591 275.704 337.507 275.493 337.507Z" fill="#263238"/>
<path d="M352.939 344.005H250.656V356.086H352.939V344.005Z" fill="#EBEBEB"/>
<path d="M347.376 319.872C347.376 320.552 346.827 321.097 346.144 321.097C345.46 321.097 344.911 320.552 344.911 319.872C344.911 319.192 345.46 318.646 346.144 318.646C346.827 318.646 347.376 319.192 347.376 319.872Z" fill="#A6A6A6"/>
<path d="M348.279 323.23H344.016C344.024 322.063 344.978 321.131 346.143 321.131C347.325 321.131 348.262 322.071 348.279 323.23Z" fill="#A6A6A6"/>
<path d="M346.143 348.656C344.48 348.656 343.298 350.058 343.298 350.058C343.298 350.058 344.48 351.452 346.143 351.452C347.814 351.452 348.996 350.058 348.996 350.058C348.996 350.058 347.814 348.656 346.143 348.656ZM346.143 351.049C345.594 351.049 345.147 350.604 345.147 350.05C345.147 349.504 345.594 349.059 346.143 349.059C346.7 349.059 347.147 349.504 347.147 350.05C347.147 350.604 346.7 351.049 346.143 351.049Z" fill="#A6A6A6"/>
<path d="M346.784 350.05C346.784 350.402 346.497 350.679 346.151 350.679C345.796 350.679 345.518 350.394 345.518 350.05C345.518 349.697 345.805 349.42 346.151 349.42C346.497 349.42 346.784 349.697 346.784 350.05Z" fill="#A6A6A6"/>
<path d="M326.236 380.185H277.366V394.843H326.236V380.185Z" fill="#ADEFD1"/>
<path d="M291.575 389.408H293.511V390H290.833V385.734H291.575V389.408ZM297.296 387.979C297.296 388.396 297.224 388.764 297.08 389.08C296.935 389.395 296.728 389.637 296.458 389.807C296.191 389.975 295.882 390.059 295.533 390.059C295.187 390.059 294.878 389.975 294.607 389.807C294.337 389.637 294.128 389.396 293.98 389.083C293.833 388.771 293.759 388.41 293.757 388.002V387.762C293.757 387.346 293.831 386.979 293.977 386.66C294.125 386.342 294.333 386.099 294.601 385.931C294.871 385.761 295.179 385.676 295.527 385.676C295.875 385.676 296.182 385.76 296.45 385.928C296.719 386.094 296.927 386.334 297.074 386.648C297.22 386.961 297.294 387.325 297.296 387.741V387.979ZM296.555 387.756C296.555 387.283 296.465 386.921 296.286 386.669C296.108 386.417 295.855 386.291 295.527 386.291C295.207 386.291 294.956 386.417 294.774 386.669C294.594 386.919 294.502 387.273 294.499 387.732V387.979C294.499 388.447 294.589 388.81 294.771 389.065C294.955 389.321 295.208 389.449 295.533 389.449C295.861 389.449 296.113 389.324 296.289 389.074C296.466 388.824 296.555 388.459 296.555 387.979V387.756ZM301.304 389.446C301.15 389.647 300.936 389.8 300.663 389.903C300.389 390.007 300.079 390.059 299.731 390.059C299.374 390.059 299.057 389.978 298.782 389.815C298.506 389.653 298.293 389.422 298.143 389.121C297.995 388.818 297.917 388.466 297.912 388.063V387.729C297.912 387.085 298.066 386.582 298.375 386.221C298.683 385.857 299.114 385.676 299.667 385.676C300.141 385.676 300.518 385.793 300.797 386.027C301.077 386.262 301.245 386.6 301.301 387.041H300.575C300.493 386.527 300.195 386.271 299.681 386.271C299.349 386.271 299.096 386.391 298.922 386.631C298.75 386.869 298.662 387.22 298.656 387.683V388.011C298.656 388.472 298.752 388.83 298.946 389.086C299.141 389.34 299.412 389.467 299.757 389.467C300.136 389.467 300.406 389.381 300.566 389.209V388.374H299.687V387.812H301.304V389.446ZM304.395 390H303.657V385.734H304.395V390ZM308.69 390H307.949L306.047 386.974V390H305.306V385.734H306.047L307.955 388.772V385.734H308.69V390Z" fill="white"/>
<path d="M323.56 262.346C328.931 262.346 333.285 258.016 333.285 252.674C333.285 247.333 328.931 243.003 323.56 243.003C318.189 243.003 313.835 247.333 313.835 252.674C313.835 258.016 318.189 262.346 323.56 262.346Z" fill="#00203F"/>
<path d="M278.581 295.29C282.348 295.29 285.402 292.253 285.402 288.506C285.402 284.76 282.348 281.723 278.581 281.723C274.814 281.723 271.76 284.76 271.76 288.506C271.76 292.253 274.814 295.29 278.581 295.29Z" fill="#EBEBEB"/>
<path d="M315.659 292.368C313.371 293.779 310.83 294.862 308.069 295.525C300.927 297.263 293.769 295.928 287.977 292.351C282.313 288.867 277.957 283.251 276.251 276.308C272.807 262.254 281.452 248.091 295.584 244.665C309.707 241.232 323.949 249.837 327.401 263.891C330.17 275.2 325.097 286.575 315.659 292.368Z" fill="#ADEFD1"/>
<path d="M309.826 267.106C309.826 271.506 306.238 275.074 301.814 275.074C297.391 275.074 293.803 271.506 293.803 267.106C293.803 262.707 297.391 259.139 301.814 259.139C306.246 259.139 309.826 262.707 309.826 267.106Z" fill="white"/>
<path d="M315.659 289.086V292.368C313.371 293.779 310.83 294.862 308.069 295.525C300.928 297.263 293.769 295.928 287.978 292.351V289.077C287.978 281.496 294.174 275.309 301.822 275.309C309.471 275.317 315.659 281.496 315.659 289.086Z" fill="white"/>
<path d="M406.161 206.252V192.745C406.161 187.653 411.451 183.505 417.966 183.505H429.158C435.664 183.505 440.963 187.645 440.963 192.745V206.252H448.506V192.745C448.506 184.398 439.832 177.6 429.158 177.6H417.957C407.292 177.6 398.608 184.39 398.608 192.745V206.252H406.161Z" fill="#00203F"/>
<g opacity="0.4">
<path opacity="0.4" d="M406.491 206.252V192.745C406.491 187.653 411.781 183.505 418.296 183.505H429.488C435.994 183.505 441.293 187.645 441.293 192.745V206.252H448.836V192.745C448.836 184.398 440.162 177.6 429.488 177.6H418.287C407.623 177.6 398.938 184.39 398.938 192.745V206.252H406.491Z" fill="white"/>
</g>
<path d="M423.595 194.081L387.614 203.13C387.614 203.13 385.87 233.259 420.691 248.404C421.643 248.81 422.605 249.216 423.604 249.6C424.594 249.216 425.575 248.81 426.508 248.404C461.33 233.251 459.576 203.13 459.576 203.13L423.595 194.081Z" fill="black"/>
<path opacity="0.6" d="M426.518 248.404C425.584 248.81 424.604 249.216 423.614 249.6L423.604 249.593C422.605 249.216 421.643 248.81 420.7 248.404C385.879 233.251 387.623 203.13 387.623 203.13L423.604 194.081L459.585 203.13C459.585 203.13 461.339 233.251 426.518 248.404Z" fill="white"/>
<path opacity="0.2" d="M454.833 205.81C454.38 212.998 450.712 233.657 424.226 245.179C424.019 245.267 423.812 245.356 423.614 245.445C423.614 245.445 423.604 245.445 423.604 245.437C423.378 245.349 423.17 245.253 422.954 245.164C396.505 233.657 392.828 213.006 392.375 205.81L423.604 197.956L454.833 205.81Z" fill="white"/>
<path opacity="0.2" d="M423.604 197.956V245.437C423.378 245.349 423.17 245.253 422.954 245.164C396.505 233.657 392.828 213.006 392.375 205.81L423.604 197.956Z" fill="white"/>
<path d="M428.912 215.943C428.912 213.648 426.536 211.781 423.594 211.781C420.662 211.781 418.276 213.641 418.276 215.943C418.276 217.766 419.776 219.309 421.85 219.87L421.199 226.144H425.98L425.197 219.907C427.356 219.375 428.912 217.803 428.912 215.943Z" fill="black"/>
<path opacity="0.4" d="M428.912 215.943C428.912 213.648 426.536 211.781 423.594 211.781C420.662 211.781 418.276 213.641 418.276 215.943C418.276 217.766 419.776 219.309 421.85 219.87L421.199 226.144H425.98L425.197 219.907C427.356 219.375 428.912 217.803 428.912 215.943Z" fill="white"/>
<path d="M118.68 120.336H153.156C159.024 120.336 163.776 125.088 163.776 130.956V160.956C163.776 166.824 159.024 171.576 153.156 171.576H143.088L145.524 181.044L135.948 171.576H118.68C112.812 171.576 108.06 166.824 108.06 160.956V130.956C108.06 125.088 112.812 120.336 118.68 120.336Z" fill="#ADEFD1"/>
<path opacity="0.7" d="M118.68 120.336H153.156C159.024 120.336 163.776 125.088 163.776 130.956V160.956C163.776 166.824 159.024 171.576 153.156 171.576H143.088L145.524 181.044L135.948 171.576H118.68C112.812 171.576 108.06 166.824 108.06 160.956V130.956C108.06 125.088 112.812 120.336 118.68 120.336Z" fill="white"/>
<path d="M148.007 157.926C154.69 151.243 154.69 140.409 148.007 133.726C141.325 127.044 130.49 127.044 123.807 133.726C117.125 140.409 117.125 151.243 123.807 157.926C130.49 164.608 141.325 164.608 148.007 157.926Z" fill="#ADEFD1"/>
<path d="M134.112 153.468C133.656 153.468 133.212 153.264 132.912 152.916L126.204 145.008C125.64 144.348 125.724 143.352 126.384 142.788C127.044 142.224 128.04 142.308 128.604 142.968L134.124 149.46L143.232 138.732C143.796 138.072 144.792 137.988 145.452 138.552C146.112 139.116 146.196 140.112 145.632 140.772L135.324 152.916C135.012 153.264 134.58 153.468 134.112 153.468Z" fill="white"/>
<path d="M215.112 232.92C215.04 233.532 215.484 234.024 216.108 234.024H227.076C227.688 234.024 228.252 233.532 228.312 232.92L230.76 211.272C230.832 210.66 230.388 210.024 229.764 210.024H218.796C218.184 210.024 217.62 210.672 217.56 211.272L215.112 232.92Z" fill="#263238"/>
<path opacity="0.5" d="M218.772 211.14L216.288 232.992C216.216 233.604 216.54 234.024 217.152 234.024H226.452C227.076 234.024 228.216 233.676 228.288 233.064L230.772 211.128C230.844 210.516 229.776 210.024 229.152 210.024H219.852C219.252 210.024 218.844 210.516 218.772 211.14Z" fill="white"/>
<path d="M210.264 230.592C212.676 235.248 215.412 240.204 218.208 244.692C220.716 248.592 223.356 252.804 226.848 255.6C227.22 255.9 227.472 255.924 227.016 255.936C225.984 255.876 224.436 256.476 224.04 257.28C225.36 255.72 225.936 252.372 226.512 250.128C227.64 244.956 228.36 239.316 229.176 233.82C229.692 229.704 235.572 229.56 236.304 233.604C237.96 243.84 241.164 272.388 223.572 268.476C212.016 264.924 202.428 247.14 197.316 236.832C193.632 228.18 205.788 222.348 210.264 230.592Z" fill="#00203F"/>
<path d="M227.88 218.244L230.916 219.012C232.056 219.3 232.992 220.128 233.412 221.232L235.404 226.368C236.196 228.42 235.956 230.736 234.744 232.572L233.988 233.712C228.864 232.776 224.016 227.988 224.016 227.988L222.48 226.776C221.112 225.696 220.848 223.836 221.88 222.504L224.244 219.432C225.072 218.364 226.512 217.896 227.88 218.244Z" fill="#B97964"/>
<path d="M228.6 236.508C228.6 236.508 234.204 236.064 236.736 234.576L236.028 229.908L228.06 231.66L228.6 236.508Z" fill="#ADEFD1"/>
<path d="M228.6 236.508C228.6 236.508 234.204 236.064 236.736 234.576L236.028 229.908L228.06 231.66L228.6 236.508Z" fill="#ADEFD1"/>
<path opacity="0.6" d="M228.6 236.508C228.6 236.508 234.204 236.064 236.736 234.576L236.028 229.908L228.06 231.66L228.6 236.508Z" fill="white"/>
<path opacity="0.2" d="M217.284 265.188C216.6 264.66 215.976 264.12 215.376 263.58C214.08 262.38 212.94 261.18 211.86 259.956C209.724 257.532 207.924 255.024 206.196 252.516C206.064 252.324 205.932 252.12 205.812 251.928C207.852 248.604 209.94 246.396 209.94 246.396C209.94 246.396 216.096 254.136 217.284 265.188Z" fill="black"/>
<path d="M211.104 289.896H170.496C170.604 285.252 170.58 280.728 170.424 276.396C170.256 271.104 169.908 266.076 169.464 261.408C169.032 256.752 168.492 252.444 167.94 248.58C167.796 247.596 167.652 246.624 167.508 245.7C165.768 234.708 163.956 227.976 163.956 227.976C186.108 217.284 206.928 227.088 206.928 227.088C217.512 242.4 211.104 289.896 211.104 289.896Z" fill="#00203F"/>
<path opacity="0.2" d="M202.08 246.564C202.08 246.564 190.764 290.688 170.424 276.396C170.256 271.104 169.908 266.076 169.464 261.408C169.032 256.752 168.492 252.444 167.94 248.58C167.796 247.596 167.652 246.624 167.508 245.7C170.52 241.896 173.496 239.508 173.496 239.508C173.496 239.508 179.088 249.852 181.884 258.348C181.884 258.348 194.928 241.176 197.304 240.78C199.68 240.384 202.08 246.564 202.08 246.564Z" fill="black"/>
<path d="M229.392 390.048C228.864 390.696 228.336 391.32 227.808 391.944C224.868 396.156 221.376 401.04 217.548 406.32C213.06 412.536 208.116 419.28 203.124 426.12C201.396 428.484 199.656 430.872 197.928 433.236C192.792 440.28 187.74 447.24 183.204 453.624V453.636C182.04 455.268 180.912 456.876 179.832 458.424C171.792 469.86 166.02 478.74 165.36 481.644C164.196 482.856 159.432 479.46 158.856 477.684C158.856 477.684 164.148 459.024 175.164 435.72C175.932 434.088 176.724 432.432 177.552 430.764C182.844 420.06 189.3 408.612 196.944 397.692C197.916 396.288 198.912 394.908 199.932 393.528C203.484 388.716 207.264 384.06 211.296 379.644C209.628 377.088 208.032 374.604 206.52 372.144C205.764 370.92 205.02 369.708 204.3 368.508H204.288C201.888 364.524 199.668 360.66 197.616 356.94C197.136 356.076 196.68 355.224 196.224 354.384C190.224 343.272 185.772 333.432 182.472 325.164C182.268 324.66 182.076 324.156 181.884 323.664C175.236 306.66 173.652 296.724 173.652 296.724L198.48 291.744L200.832 291.276L208.188 289.812C208.188 289.812 212.472 302.52 217.572 319.512C218.016 320.988 218.46 322.5 218.916 324.036C220.8 330.42 222.756 337.284 224.604 344.208C226.188 350.136 227.712 356.1 229.044 361.884C229.128 362.256 229.212 362.616 229.296 362.988C230.412 367.776 231.384 372.42 232.164 376.764L232.188 376.836C233.46 381.432 232.44 386.376 229.392 390.048Z" fill="#B97964"/>
<path opacity="0.2" d="M203.124 426.12C201.396 428.484 199.656 430.872 197.928 433.236C192.792 440.28 187.74 447.24 183.204 453.624V453.636C182.04 455.268 180.912 456.876 179.832 458.424C178.428 452.544 176.664 444.516 175.164 435.72C175.932 434.088 176.724 432.432 177.552 430.764C182.844 420.06 189.3 408.612 196.944 397.692C197.916 396.288 198.912 394.908 199.932 393.528C200.412 401.172 201.372 413.76 203.124 426.12Z" fill="black"/>
<path d="M152.712 487.812L154.188 488.688L155.688 487.116L159.252 492.24L171.612 499.644C171.612 499.644 174.768 498.84 169.812 493.74C169.584 493.512 169.368 493.236 169.164 492.924C166.908 489.576 165.42 481.92 165.42 481.92L158.64 477.852C158.64 477.852 158.196 478.044 157.5 478.5C155.856 479.556 152.7 481.92 152.712 487.812Z" fill="#00203F"/>
<path d="M157.5 478.512C157.488 478.524 157.488 478.536 157.488 478.536C158.976 478.068 160.428 484.896 162.528 488.184C164.4 491.112 167.04 493.488 169.176 492.936C166.92 489.588 165.828 480.204 165.828 480.204L160.368 476.94C160.368 476.916 158.196 478.056 157.5 478.512Z" fill="#B97964"/>
<path d="M204.216 488.256C202.656 489.636 199.416 490.404 195.648 489.996C195.648 489.996 189.084 474.132 183.204 453.636V453.624C181.128 446.412 179.136 438.636 177.552 430.764C174.348 414.9 172.764 398.7 175.368 386.172C173.904 381.024 172.62 376.14 171.516 371.508C171.24 370.368 170.976 369.24 170.724 368.124H170.712C166.98 351.84 165.324 338.664 164.856 328.152C164.856 328.104 164.856 328.044 164.844 327.996C163.704 300.66 170.724 291.264 170.724 291.264L201.168 285.288C201.168 285.288 201.096 286.632 200.964 289.008C200.928 289.68 200.88 290.436 200.832 291.276C200.484 297.132 199.944 306.78 199.368 317.928C199.296 319.416 199.212 320.94 199.14 322.476C198.684 331.812 198.204 341.928 197.82 351.6C197.748 353.4 197.676 355.176 197.616 356.94C197.448 361.32 197.304 365.556 197.208 369.528C197.196 369.948 197.184 370.356 197.172 370.764C197.076 374.256 196.992 377.52 196.956 380.484C196.896 385.728 196.884 391.548 196.944 397.692C197.04 408.9 197.352 421.224 197.928 433.236C198.996 455.664 200.976 477.048 204.216 488.256Z" fill="#B97964"/>
<path opacity="0.2" d="M167.928 248.58C168.48 252.444 169.02 256.752 169.452 261.408C171.312 257.712 173.508 248.88 170.604 239.508L167.928 248.58Z" fill="black"/>
<path d="M209.46 229.908L206.328 229.932C205.152 229.944 204.048 230.52 203.364 231.48L200.196 235.992C198.924 237.792 198.612 240.096 199.356 242.172L199.812 243.456C205.008 243.78 210.864 240.288 210.864 240.288L212.64 239.484C214.224 238.764 214.92 237.024 214.248 235.476L212.688 231.924C212.16 230.7 210.876 229.896 209.46 229.908Z" fill="#B97964"/>
<path d="M184.944 220.188C172.212 220.176 170.604 230.664 170.604 230.664L176.556 228.096L194.052 239.796L198.348 227.976L203.748 228.984C203.76 228.996 196.008 220.2 184.944 220.188Z" fill="#ADEFD1"/>
<path opacity="0.6" d="M184.944 220.188C172.212 220.176 170.604 230.664 170.604 230.664L176.556 228.096L194.052 239.796L198.348 227.976L203.748 228.984C203.76 228.996 196.008 220.2 184.944 220.188Z" fill="white"/>
<path d="M195.732 499.2H197.448L197.928 497.076L203.616 499.644H218.028C218.028 499.644 220.32 497.34 213.456 495.504C213.144 495.42 212.82 495.3 212.484 495.132C208.824 493.416 203.616 487.62 203.616 487.62H195.708C195.708 487.62 195.432 488.016 195.06 488.76C194.196 490.5 192.696 494.148 195.732 499.2Z" fill="#00203F"/>
<path d="M195.06 488.76C195.06 488.772 195.06 488.784 195.06 488.784C196.104 487.62 200.856 492.732 204.336 494.472C207.444 496.02 210.936 496.704 212.484 495.132C208.824 493.416 203.064 485.928 203.064 485.928H196.704C196.704 485.928 195.432 488.016 195.06 488.76Z" fill="#B97964"/>
<path d="M211.488 286.632H170.544L169.44 291.9C169.44 291.9 153.924 313.956 165.624 367.032C165.624 367.032 199.764 366.024 230.784 359.376C230.784 359.376 219.024 308.448 211.74 291.048L211.488 286.632Z" fill="#001224"/>
<path d="M182.748 291.168H169.008L169.836 287.256H182.748V291.168Z" fill="#ADEFD1"/>
<path d="M207.696 287.256H211.812L212.172 291.168H207.696V287.256Z" fill="#ADEFD1"/>
<path d="M206.328 287.256H184.08V291.168H206.328V287.256Z" fill="#ADEFD1"/>
<path opacity="0.6" d="M182.748 291.168H169.008L169.836 287.256H182.748V291.168Z" fill="white"/>
<path opacity="0.6" d="M207.696 287.256H211.812L212.172 291.168H207.696V287.256Z" fill="white"/>
<path opacity="0.6" d="M206.328 287.256H184.08V291.168H206.328V287.256Z" fill="white"/>
<path d="M193.968 291.468H200.136C200.508 291.468 200.808 291.168 200.808 290.796V287.628C200.808 287.256 200.508 286.956 200.136 286.956H193.968C193.596 286.956 193.296 287.256 193.296 287.628V290.796C193.296 291.168 193.596 291.468 193.968 291.468Z" fill="white"/>
<path d="M196.152 224.82C196.152 224.82 193.5 239.004 193.5 239.1L177.072 224.82C180.108 221.712 179.664 214.476 178.536 208.476C178.536 208.476 178.548 208.476 178.536 208.464C178.188 206.58 177.768 204.816 177.372 203.34L189.816 213.348C189.432 215.532 189.276 217.776 189.876 219.72C190.584 222.036 192.372 223.932 196.152 224.82Z" fill="#B97964"/>
<path opacity="0.2" d="M189.876 219.72C181.452 219.324 178.536 208.476 178.536 208.476C178.536 208.476 178.548 208.476 178.536 208.464C178.188 206.58 177.768 204.816 177.372 203.34L189.816 213.348C189.432 215.532 189.276 217.776 189.876 219.72Z" fill="black"/>
<path d="M204.12 190.68C204.12 190.68 208.908 189.36 207.84 186.036C206.772 182.712 205.116 182.592 205.116 182.592C205.116 182.592 207.96 178.56 206.064 174.048C204.168 169.536 198.948 170.844 198.948 170.844C198.948 170.844 199.368 165.972 194.772 164.676C190.164 163.368 187.8 167.556 187.8 167.556C187.8 167.556 184.98 163.128 180.216 163.836C175.452 164.544 173.904 170.952 173.904 170.952C173.904 170.952 169.752 169.02 167.136 173.484C164.52 177.948 167.136 181.776 167.136 181.776C167.136 181.776 164.292 180.096 162.864 184.788C161.436 189.468 166.068 194.172 166.068 194.172C166.068 194.172 163.344 194.256 164.412 197.916C165.48 201.576 169.872 202.056 169.872 202.056C169.872 202.056 168.096 202.764 171.06 205.968C174.024 209.172 184.8 205.968 184.8 205.968L204.12 190.68Z" fill="#263238"/>
<path d="M192.084 181.908C201.972 183.336 204.396 189.096 203.64 199.392C202.704 212.256 198.576 220.896 186.6 216.396C170.352 210.264 175.668 179.532 192.084 181.908Z" fill="#B97964"/>
<path d="M197.34 197.916C197.34 197.916 198.336 200.7 199.62 202.428C199.62 202.428 198.576 203.652 196.848 203.172L197.34 197.916Z" fill="#A24E3F"/>
<path d="M191.4 196.224C191.304 197.04 190.776 197.652 190.236 197.58C189.696 197.52 189.336 196.8 189.432 195.984C189.528 195.168 190.056 194.556 190.596 194.628C191.136 194.7 191.496 195.408 191.4 196.224Z" fill="#263238"/>
<path d="M190.356 194.64L192.216 194.16C192.216 194.16 191.16 195.552 190.356 194.64Z" fill="#263238"/>
<path d="M201.552 197.28C201.456 198.096 200.928 198.708 200.388 198.636C199.848 198.576 199.488 197.856 199.584 197.04C199.68 196.224 200.208 195.612 200.748 195.684C201.288 195.756 201.648 196.464 201.552 197.28Z" fill="#263238"/>
<path d="M200.521 195.696L202.38 195.216C202.368 195.216 201.313 196.596 200.521 195.696Z" fill="#263238"/>
<path d="M187.776 190.68C187.656 190.68 187.548 190.632 187.464 190.548C187.308 190.38 187.32 190.104 187.488 189.948C189.42 188.172 192.276 188.94 192.396 188.976C192.624 189.036 192.756 189.276 192.696 189.504C192.636 189.732 192.396 189.864 192.168 189.804C192.144 189.792 189.648 189.132 188.064 190.584C187.992 190.644 187.884 190.68 187.776 190.68Z" fill="#263238"/>
<path d="M203.364 191.808C203.268 191.808 203.16 191.772 203.076 191.7C201.3 190.104 199.692 190.404 199.62 190.416C199.392 190.464 199.164 190.308 199.116 190.092C199.068 189.864 199.212 189.636 199.44 189.588C199.524 189.576 201.516 189.168 203.64 191.064C203.82 191.22 203.832 191.484 203.676 191.664C203.592 191.76 203.472 191.808 203.364 191.808Z" fill="#263238"/>
<path d="M178.872 197.016C178.872 197.016 184.668 189.552 184.872 183.18C184.872 183.18 205.632 178.008 203.724 198.036C203.724 198.036 208.188 180.648 191.244 177.804C174.324 174.96 170.784 199.836 178.488 208.524C178.488 208.512 175.272 201.684 178.872 197.016Z" fill="#263238"/>
<path d="M180.18 199.332C180.348 197.736 179.088 194.796 176.076 194.688C172.968 194.58 170.592 200.664 177.996 203.28C179.076 203.664 179.844 202.68 180.18 199.332Z" fill="#B97964"/>
<path d="M194.532 208.764C193.548 208.764 189.972 208.512 188.88 204.852C188.808 204.624 188.94 204.396 189.168 204.324C189.396 204.264 189.636 204.384 189.696 204.612C190.764 208.176 194.568 207.924 194.724 207.912C194.964 207.9 195.168 208.068 195.18 208.308C195.204 208.536 195.024 208.74 194.796 208.764C194.784 208.764 194.688 208.764 194.532 208.764Z" fill="#263238"/>
<path d="M175.548 193.044C179.04 180.924 198.228 172.248 203.772 187.212C203.772 187.212 202.848 181.776 198.228 177.576C198.228 177.576 180.192 170.604 175.02 191.388L175.548 193.044Z" fill="#ADEFD1"/>
<path d="M172.992 235.512C175.92 244.98 178.212 255.24 182.58 264.06C182.316 263.868 181.572 263.364 180.804 263.184C180.588 263.124 180.276 263.076 180.06 263.076C179.64 263.076 179.364 263.124 179.172 263.184C178.824 263.316 178.908 263.364 179.136 263.256C181.812 261.672 184.092 258.54 186.252 255.78C189.54 251.424 192.672 246.576 195.768 241.872C198.06 238.452 203.364 240.96 202.212 244.884C199.14 254.448 190.512 278.892 177.276 275.7C172.068 274.068 169.896 268.932 167.724 264.66C163.92 256.356 161.292 247.944 159.048 239.16C157.068 229.932 170.196 226.5 172.992 235.512Z" fill="#00203F"/>
<path d="M198.588 237.696C198.588 237.696 203.172 240.936 204.588 243.516L201.588 247.164L195.648 241.584L198.588 237.696Z" fill="#ADEFD1"/>
<path d="M198.588 237.696C198.588 237.696 203.172 240.936 204.588 243.516L201.588 247.164L195.648 241.584L198.588 237.696Z" fill="#ADEFD1"/>
<path opacity="0.6" d="M198.588 237.696C198.588 237.696 203.172 240.936 204.588 243.516L201.588 247.164L195.648 241.584L198.588 237.696Z" fill="white"/>
<path d="M163.944 227.976C159.876 230.412 156.84 232.752 159.252 239.508C162.108 247.536 174.612 242.436 174.612 242.436C174.612 242.436 174.54 236.112 172.02 232.908C169.488 229.704 163.944 227.976 163.944 227.976Z" fill="#00203F"/>
<path d="M104.112 425.004C104.112 425.004 124.632 420.348 135.876 409.992C147.12 399.636 153.408 381.06 153.408 381.06C153.408 381.06 141.324 383.268 130.392 387.108C128.556 389.076 125.064 393.12 123.432 396.948C123.432 396.948 123.084 392.904 123.372 389.916C120.444 391.26 117.9 392.76 116.064 394.356C106.74 402.516 104.112 425.004 104.112 425.004Z" fill="#ADEFD1"/>
<path d="M140.592 390.084C143.388 388.152 146.232 386.28 149.028 384.324C149.196 384.204 149.04 383.94 148.86 384.048C143.568 387.204 138.36 390.576 133.32 394.116C131.556 395.352 129.84 396.636 128.124 397.944C128.244 397.74 128.364 397.536 128.484 397.332C129.096 396.3 129.744 395.292 130.392 394.284C131.7 392.256 133.128 390.252 134.748 388.464C134.808 388.392 134.7 388.296 134.652 388.368C133.056 390.216 131.46 392.028 129.996 393.984C129.3 394.908 128.664 395.88 128.052 396.864C127.728 397.38 127.428 397.884 127.128 398.412C127.032 398.592 126.924 398.76 126.816 398.94C124.164 401.028 121.584 403.2 119.112 405.492C117.588 406.908 116.124 408.384 114.708 409.896C115.5 407.412 116.196 404.904 117.12 402.456C117.156 402.372 117.012 402.336 116.988 402.42C116.1 404.988 115.116 407.556 114.432 410.196C112.86 411.888 111.36 413.652 109.944 415.488C109.968 415.38 109.992 415.26 110.016 415.152C110.244 414.18 110.496 413.22 110.748 412.26C111.252 410.4 111.792 408.564 112.416 406.74C113.7 403.008 115.368 399.36 117.924 396.324C117.984 396.252 117.876 396.156 117.828 396.228C113.82 400.968 111.468 406.668 109.968 412.632C109.752 413.508 109.536 414.384 109.344 415.26C109.236 415.728 109.116 416.196 109.032 416.676C108.408 417.516 107.808 418.356 107.22 419.232C103.656 424.536 100.884 430.332 98.5324 436.26C95.8924 442.944 93.8404 449.844 91.9564 456.756C91.9204 456.888 92.1244 456.936 92.1724 456.804C96.1804 444.792 100.284 432.624 107.148 421.884C108.6 419.616 110.172 417.432 111.828 415.332C115.2 415.14 118.608 414.408 121.812 413.34C125.352 412.164 128.688 410.532 131.808 408.516C133.62 407.352 135.264 405.984 136.932 404.64C137.004 404.58 136.92 404.472 136.848 404.532C134.076 406.884 130.74 408.72 127.44 410.22C124.128 411.732 120.648 412.92 117.084 413.688C115.572 414.024 114.036 414.264 112.5 414.468C114.396 412.128 116.424 409.896 118.548 407.76C119.244 407.064 119.952 406.404 120.672 405.744C123.024 404.028 125.64 402.66 128.256 401.4C131.616 399.78 134.928 398.052 138.252 396.36C140.124 395.4 141.996 394.428 143.892 393.504C143.976 393.468 143.904 393.348 143.82 393.384C140.448 395.016 137.028 396.54 133.62 398.1C130.416 399.564 127.176 401.04 124.104 402.768C123.972 402.84 123.852 402.924 123.72 402.996C126.504 400.572 129.372 398.268 132.324 396.048C135.024 394.032 137.784 392.028 140.592 390.084Z" fill="#263238"/>
<path d="M139.428 400.668C137.76 401.4 136.056 402.048 134.412 402.816C132.708 403.608 131.1 404.544 129.492 405.492C129.42 405.54 129.492 405.636 129.564 405.6C131.196 404.82 132.852 404.088 134.472 403.272C136.128 402.432 137.772 401.544 139.476 400.8C139.548 400.764 139.512 400.632 139.428 400.668Z" fill="#263238"/>
<path d="M37.4521 321.6C37.4521 321.6 43.2121 328.2 43.5841 338.64C43.6561 340.476 43.3561 343.044 43.1521 346.056C50.8081 350.136 56.5441 357.504 56.5441 357.504C52.2001 354.888 46.2361 353.844 43.0082 354.264C43.1161 356.244 43.3561 358.308 43.7881 360.396C45.2041 360.312 47.9521 360.504 52.4881 362.112C52.4881 362.112 48.0362 362.004 44.6402 363.672C48.3002 375.312 59.1721 387.264 89.1961 392.34C89.1961 392.34 94.9921 371.952 83.8801 350.088C74.8801 332.4 37.4521 321.6 37.4521 321.6Z" fill="#ADEFD1"/>
<path d="M99.5882 442.14C99.0722 437.172 98.4122 432.216 97.6442 427.272C96.1082 417.384 94.1162 407.556 91.5842 397.884C90.3962 393.324 88.9682 388.848 87.2522 384.492C87.3602 383.7 87.3482 382.884 87.3602 382.092C87.3842 381.132 87.3842 380.172 87.3722 379.212C87.3482 377.292 87.2642 375.372 87.0962 373.452C86.7722 369.672 86.1962 365.88 85.2482 362.196C84.6962 360.06 84.0602 357.948 83.4362 355.836C83.4122 355.752 83.2802 355.788 83.3042 355.872C84.3602 359.532 84.9722 363.336 85.5242 367.104C86.0642 370.836 86.4002 374.604 86.5322 378.372C86.5682 379.404 86.5922 380.436 86.5922 381.468C86.5922 381.9 86.5682 382.344 86.5562 382.8C85.0802 379.224 83.4122 375.732 81.4922 372.324C78.4682 366.948 74.9882 361.836 71.2202 356.952C71.2562 356.4 71.0882 355.812 70.9682 355.272C70.8242 354.6 70.6802 353.928 70.5362 353.268C70.2242 351.9 69.8882 350.532 69.5162 349.176C68.7722 346.452 67.7882 343.824 66.9362 341.136C66.9122 341.052 66.7802 341.088 66.8042 341.172C67.5962 343.836 68.1242 346.584 68.7362 349.296C69.0362 350.64 69.3362 351.972 69.6242 353.316C69.7682 353.988 69.9122 354.66 70.0562 355.332C70.0682 355.38 70.0682 355.428 70.0802 355.488C68.8682 353.952 67.6322 352.452 66.3602 350.964C60.6242 344.244 54.3362 338.04 48.0122 331.884C47.2322 331.128 46.4402 330.384 45.6482 329.64C45.5882 329.58 45.4922 329.676 45.5522 329.736C51.6002 336.048 57.5522 342.42 63.1922 349.104C64.5362 350.688 65.8562 352.296 67.1522 353.928C66.4682 353.46 65.7842 353.016 65.1002 352.572C63.3482 351.432 61.5842 350.316 59.7602 349.296C57.9362 348.276 56.1002 347.28 54.2282 346.356C52.3082 345.396 50.2442 344.628 48.3842 343.548C48.3002 343.5 48.2402 343.632 48.3122 343.668C50.2322 344.448 52.0202 345.648 53.7962 346.704C55.6202 347.784 57.4442 348.876 59.2442 350.016C61.0082 351.132 62.7842 352.236 64.5362 353.376C66.0002 354.324 67.4402 355.356 68.9522 356.232C72.4202 360.72 75.6722 365.364 78.5762 370.236C80.4002 373.308 82.0562 376.452 83.5442 379.668C83.1842 379.512 82.8242 379.356 82.4642 379.2C81.5522 378.792 80.6282 378.384 79.7162 377.976C77.9522 377.196 76.1762 376.428 74.4002 375.66C71.0282 374.196 67.6082 372.852 64.3082 371.244C62.4602 370.344 60.6362 369.396 58.9202 368.256C58.8482 368.208 58.7762 368.328 58.8482 368.376C65.0042 372.624 71.9042 375.612 78.7202 378.624L81.6722 379.932C82.4882 380.292 83.2922 380.688 84.1322 381.012C86.1482 385.512 87.8402 390.156 89.2082 394.92C91.9442 404.46 94.0202 414.204 95.7362 423.96C97.4642 433.764 98.6162 443.64 99.5282 453.552C99.6362 454.788 99.7562 456.024 99.8882 457.26C99.9482 457.752 100.68 457.752 100.668 457.236C100.632 452.184 100.116 447.144 99.5882 442.14Z" fill="#263238"/>
<path d="M81.3243 359.232C80.7723 356.184 79.9563 353.196 79.1403 350.208C79.1163 350.124 78.9843 350.16 79.0083 350.244C79.7643 353.172 80.3163 356.172 80.8683 359.148C81.4323 362.184 81.9243 365.232 82.3563 368.292C82.3683 368.34 82.4403 368.34 82.4403 368.292C82.2243 365.244 81.8643 362.22 81.3243 359.232Z" fill="#263238"/>
<path d="M68.3882 367.5C66.3482 366.06 64.0682 364.968 61.8602 363.828C60.7682 363.264 59.6522 362.724 58.5482 362.184C57.4082 361.632 56.2202 361.164 55.0802 360.6C54.9962 360.564 54.9362 360.684 55.0082 360.72C56.1002 361.272 57.1442 361.932 58.2242 362.52C59.3402 363.132 60.4442 363.744 61.5602 364.344C63.7562 365.52 65.9162 366.828 68.2202 367.788C68.4242 367.884 68.5562 367.632 68.3882 367.5Z" fill="#263238"/>
<path opacity="0.1" d="M104.484 389.46C104.484 389.46 123.468 384.924 132.192 372.192C140.52 360.024 143.208 339.288 143.424 337.464C143.076 339.132 139.164 357.264 126.24 365.7C116.328 372.168 106.764 377.484 104.484 389.46Z" fill="#263238"/>
<path d="M122.004 356.652C118.668 359.868 116.16 363.648 115.008 368.184C114.996 368.22 115.056 368.244 115.068 368.208C116.496 363.996 118.848 359.832 122.1 356.76C122.16 356.7 122.064 356.592 122.004 356.652Z" fill="#263238"/>
<path d="M104.484 389.46C104.484 389.46 123.468 384.924 132.192 372.192C140.52 360.024 143.208 339.288 143.424 337.464C143.436 337.38 143.448 337.332 143.448 337.332C143.448 337.332 134.34 350.28 124.776 353.58C115.188 356.88 101.736 368.304 104.484 389.46Z" fill="#ADEFD1"/>
<path d="M140.076 344.472C138.312 347.928 136.464 351.348 134.208 354.504C132 357.576 129.348 360.192 126.396 362.544C123.816 364.596 121.092 366.444 118.476 368.46C118.5 368.424 118.512 368.4 118.536 368.364C119.028 367.632 119.556 366.924 120.096 366.24C121.188 364.848 122.376 363.54 123.564 362.244C125.928 359.688 128.328 357.168 130.452 354.396C131.628 352.86 132.648 351.228 133.5 349.488C133.536 349.404 133.404 349.368 133.368 349.44C130.284 355.86 124.14 359.964 119.748 365.388C119.124 366.156 118.536 366.96 117.996 367.788C117.612 368.376 117.156 369.024 116.904 369.72C114.516 371.676 112.308 373.812 110.424 376.272C110.58 375.024 110.856 373.788 111.192 372.588C111.66 370.884 112.284 369.288 113.208 367.776C113.256 367.704 113.136 367.62 113.088 367.704C112.2 369.204 111.384 370.812 110.868 372.48C110.448 373.836 110.256 375.192 110.172 376.584L110.16 376.596C109.212 377.868 108.372 379.212 107.592 380.58C107.676 380.172 107.748 379.764 107.832 379.368C108.204 377.472 108.624 375.588 109.116 373.728C110.112 369.948 111.456 366.276 113.688 363.036C113.736 362.964 113.628 362.88 113.568 362.964C111.372 366.168 109.704 369.744 108.504 373.428C107.904 375.288 107.412 377.184 106.992 379.092C106.788 380.028 106.596 380.964 106.416 381.9C106.32 382.38 106.212 382.884 106.14 383.388C104.196 387.492 102.84 391.884 101.76 396.264C99.8281 404.136 98.6161 412.224 97.7161 420.276C96.7681 428.724 96.2641 437.268 96.4081 445.764C96.4201 446.832 96.4921 447.9 96.5521 448.968C96.5641 449.244 96.9841 449.28 96.9961 448.992C97.1881 444.78 97.2961 440.568 97.5361 436.356C97.7881 432.144 98.1481 427.944 98.6041 423.744C99.4921 415.512 100.764 407.28 102.564 399.192C104.1 392.244 106.104 385.26 109.896 379.176C111.792 376.128 114.072 373.428 116.748 371.028C119.412 368.64 122.316 366.54 125.124 364.332C127.92 362.136 130.596 359.736 132.816 356.94C135.204 353.928 137.088 350.544 138.852 347.136C139.296 346.272 139.764 345.42 140.208 344.568C140.232 344.472 140.112 344.4 140.076 344.472Z" fill="#263238"/>
<path d="M136.8 347.256C135.588 349.824 134.112 352.272 132.564 354.648C132.528 354.708 132.612 354.756 132.648 354.708C134.304 352.38 135.684 349.872 136.92 347.304C136.968 347.22 136.836 347.184 136.8 347.256Z" fill="#263238"/>
<path d="M34.8002 381.06C34.8002 381.06 34.5002 408.048 50.6282 415.836C66.7562 423.636 75.4082 417.132 86.3762 419.748C86.3762 419.748 86.3642 419.748 86.3522 419.736C85.9322 419.088 78.1082 407.844 65.6522 404.748C52.8722 401.556 38.6882 392.304 34.8002 381.06Z" fill="#ADEFD1"/>
<path opacity="0.1" d="M34.8002 381.06C34.8002 381.06 34.5002 408.048 50.6282 415.836C66.7562 423.636 75.4082 417.132 86.3762 419.748C86.3762 419.748 86.3642 419.748 86.3522 419.736C85.8962 419.52 77.8922 415.512 68.0042 414.324C57.8522 413.1 38.4122 406.464 34.8002 381.06Z" fill="black"/>
<path d="M87.4443 420.228C85.5243 418.488 83.3643 417 81.0243 415.884C80.6763 415.716 80.3283 415.584 79.9683 415.44C79.8003 415.224 79.6203 415.02 79.4283 414.816C78.9483 414.312 78.4443 413.832 77.9043 413.376C76.8963 412.512 75.8163 411.708 74.6643 411.036C71.9883 409.464 69.0603 408.36 66.3243 406.908C66.2403 406.86 66.1803 406.992 66.2523 407.028C67.6083 407.724 68.9163 408.504 70.2243 409.272C71.5083 410.016 72.8043 410.724 74.0523 411.528C75.1683 412.248 76.2483 413.04 77.2443 413.916C77.5323 414.168 77.7963 414.432 78.0723 414.708C76.2963 414.096 74.4603 413.628 72.6243 413.256C69.6723 412.656 66.6843 412.236 63.7323 411.612C62.2803 411.3 60.8523 410.916 59.4483 410.46C58.1043 409.38 56.7723 408.312 55.5003 407.148C53.9643 405.732 52.5603 404.208 51.3243 402.528C51.2763 402.456 51.1563 402.528 51.2043 402.6C53.1963 405.168 55.3323 407.76 57.8163 409.896C57.1203 409.632 56.4363 409.344 55.7523 409.044C50.2683 406.548 45.3963 402.6 42.0003 397.608C41.9523 397.536 41.8323 397.608 41.8803 397.68C44.8323 401.952 48.5763 405.612 53.0043 408.36C55.2243 409.74 57.5523 410.856 60.0363 411.684C62.8803 412.632 65.8323 413.196 68.7723 413.748C71.6523 414.288 74.5443 414.84 77.3283 415.788C79.8963 416.664 82.3203 417.936 84.5043 419.556C88.6563 422.664 91.8723 426.924 94.1763 431.544C97.2243 437.676 98.6883 444.516 99.5043 451.272C99.5403 451.56 99.9843 451.56 99.9603 451.26C99.2163 439.908 96.1923 428.1 87.4443 420.228Z" fill="#263238"/>
<path d="M68.7241 411.432C67.9201 410.148 66.7081 409.176 65.4121 408.42C63.8881 407.544 62.5201 406.596 61.4641 405.156C61.4161 405.084 61.2961 405.156 61.3441 405.228C62.3161 406.476 63.4921 407.508 64.8241 408.348C66.2281 409.236 67.6561 410.1 68.6161 411.492C68.6641 411.552 68.7601 411.492 68.7241 411.432Z" fill="#263238"/>
<path d="M77.2803 440.136L78.0123 454.98L80.2683 500.316H114.108L116.364 454.98L117.096 440.136H77.2803Z" fill="#00203F"/>
<path d="M77.2803 440.136L78.0123 454.98H116.364L117.096 440.136H77.2803Z" fill="#00203F"/>
<path d="M74.9181 448.108H119.474V433.948H74.9181V448.108Z" fill="#00203F"/>
</svg>
